<?xml version="1.0" encoding="utf-8"?>
<!-- World Justice Project logo mark in brand purple (#400099) on a white
     square background, for use as the WJP Wiki favicon. -->
<svg version="1.1" xmlns="http://www.w3.org/2000/svg" width="90" height="90"
	 viewBox="24.6 107.6 90 90" xml:space="preserve">
<rect x="24.6" y="107.6" width="90" height="90" fill="#ffffff"/>
<g style="fill:#400099;">
	<path d="M89.1,168.2c-6.1-0.5-12.7-0.8-19.6-0.8c-5.9,0-11.6,0.2-16.9,0.6c-0.6-1.4-1.1-2.9-1.5-4.4c5.2-0.4,10.7-0.7,16.3-0.7
		v-8.4c-15.9,0.1-29.7,1.7-40.2,4.4c1.1,2.7,2.7,5.2,4.7,7.3c3.7-0.7,7.6-1.3,11.6-1.8c-0.5-1.7-0.8-3.4-1.1-5.2
		c1.6-0.2,2.9-0.4,4.5-0.5c1.1,8.7,4.8,15.6,9.7,19.7c3.5,0.7,7.1,1,10.7,1.1v-9.1h2h2.6v9c3.4-0.1,6.7-0.5,10-1.1
		C85.2,175.5,87.6,172,89.1,168.2z"/>
	<path d="M75.1,154.5V150c5.8,0.1,11.4,0.5,16.7,1c-0.1-3-0.6-5.9-1.4-8.8c-6.5-0.6-13.5-1-20.9-1c-6.3,0-12.4,0.2-18,0.7
		c0.5-1.6,1.1-3.1,1.7-4.6c4.6-0.3,9.4-0.5,14.2-0.6v-10.9c-2.8,0.1-5.6,0.3-8.4,0.7c-6.7,4.1-11.7,12.9-12.3,24.5
		c6.5-0.7,13.5-1.1,20.7-1.1v-5.6h2h2.6v18.5c6.4,0.1,12.6,0.4,18.5,1c0.5-1.7,0.8-3.5,1-5.2c1.7,0.2,2.9,0.3,4.5,0.5
		c-0.8,6.2-3.2,12.2-6.9,17.3c4.8-1.5,9.2-3.7,13.3-6.6c-1.9-0.3-3.9-0.6-5.9-0.9c0.6-1.4,1.1-2.8,1.5-4.3c3,0.4,5.9,0.9,8.7,1.4
		c2-2.1,3.6-4.6,4.7-7.3C101.7,156.4,89.3,154.8,75.1,154.5z"/>
	<path d="M36.2,169.9c4,2.9,8.5,5.1,13.3,6.6c-1.8-2.4-3.3-5-4.4-7.8C42,169,39,169.4,36.2,169.9z"/>
	<path d="M45,138.1c1.4-3.6,3.4-6.9,5.9-9.7c-8.6,2.5-15.6,6.7-19.9,11.9C35.4,139.4,40,138.7,45,138.1z"/>
	<path d="M96.5,151.6c5.4,0.7,10.7,1.6,16,2.8c0.1-0.6,0.1-1.2,0.1-1.7c0-2.5-0.5-4.9-1.6-7.1c-3.8-0.9-8-1.7-12.5-2.3
		c-0.4-1.6-0.9-3.2-1.5-4.7c3.7,0.5,7.2,1.1,10.6,1.7c-4.4-5.2-11.5-9.4-20.1-11.9C92.7,134,96.1,142.3,96.5,151.6z"/>
	<path d="M43.4,142.8c-5.3,0.6-10.6,1.6-15.8,2.8c-1,2.2-1.5,4.6-1.5,7.1c0,0.6,0,1.2,0.1,1.8c5.3-1.2,10.6-2.2,15.9-2.9
		C42.3,148.6,42.7,145.7,43.4,142.8z"/>
	<path d="M72.1,136.8c5.7,0.1,11.3,0.3,16.7,0.8c-1.9-4.5-5.1-8.3-9.2-10.9c-0.1,0-0.1-0.1-0.2-0.2c-2.4-0.4-4.8-0.6-7.3-0.7V136.8z
		"/>
</g>
</svg>
